{"title":"The Muppets 2011 1080p Brrip x264 Ratzz","uid":7088786,"size":1396383911,"categoryP":"video","categoryS":"hd___movies","magnet":"?xt=urn:btih:b172be20ae4aee636e69dfeec95bc4bb5b72090e&amp;dn=The+Muppets+2011+1080p+Brrip+x264+Ratzz&amp;tr=udp%3A%2F%2Ftracker.openbittorrent.com%3A80&amp;tr=udp%3A%2F%2Fopen.demonii.com%3A1337&amp;tr=udp%3A%2F%2Ftracker.coppersurfer.tk%3A6969&amp;tr=udp%3A%2F%2Fexodus.desync.com%3A6969","seeders":1,"leechers":0,"uploader":"afterratzz","files":7,"time":1331280862,"description":"Encoded by Ratzz.\n\n\n\n\n\n\nGeneral\nComplete name : The Muppets 2011 1080p Brrip x264 Ratzz.mp4\nFormat : MP4\nFormat profile : Base Media\nCodec ID : isom\nFile size : 1.30 GiB\nDuration : 1h 42mn\nOverall bit rate : 1 811 Kbps\n\nVideo\nID : 1\nFormat : AVC\nFormat profile : &lt;a class=&quot;__cf_email__&quot; href=&quot;/cdn-cgi/l/email-protection&quot; data-cfemail=&quot;5a12333d321a166f746a&quot;&gt;[email&amp;#160;protected]&lt;/a&gt;&lt;script cf-hash='f9e31' type=&quot;text/javascript&quot;&gt;\n/* &lt;![CDATA[ */!function(){try{var t=&quot;currentScript&quot;in document?document.currentScript:function(){for(var t=document.getElementsByTagName(&quot;script&quot;),e=t.length;e--;)if(t[e].getAttribute(&quot;cf-hash&quot;))return t[e]}();if(t&amp;&amp;t.previousSibling){var e,r,n,i,c=t.previousSibling,a=c.getAttribute(&quot;data-cfemail&quot;);if(a){for(e=&quot;&quot;,r=parseInt(a.substr(0,2),16),n=2;a.length-n;n+=2)i=parseInt(a.substr(n,2),16)^r,e+=String.fromCharCode(i);e=document.createTextNode(e),c.parentNode.replaceChild(e,c)}}}catch(u){}}();/* ]]&gt; */&lt;/script&gt;\nDuration : 1h 42mn\nBit rate mode : Variable\nBit rate : 1 713 Kbps\nMaximum bit rate : 169 Mbps\nWidth : 1 920 pixels\nHeight : 1 080 pixels\nDisplay aspect ratio : 16:9\nFrame rate mode : Constant\nFrame rate : 23.976 fps\nStream size : 1.23 GiB (95%)\nTitle : The Muppets 2011 1080p Brrip x264 Ratzz\n\nAudio\nID : 2\nFormat : AAC\nFormat/Info : Advanced Audio Codec\nFormat profile : LC\nCodec ID : 40\nDuration : 1h 42mn\nBit rate mode : Variable\nBit rate : 96.0 Kbps\nMaximum bit rate : 101 Kbps\nChannel(s) : 2 channels\nChannel positions : Front: L R\nSampling rate : 48.0 KHz\nCompression mode : Lossy\nStream size : 70.5 MiB (5%)\nLanguage : English\n\n\n\n\n\n\n\n\n\n\n\n\n\n\n\n\nSubtitles : eng .srt included.\n\n\n\n\n\n\n\n\n\n\n\n\n\n\nPoster :\n  &lt;a href=&quot;\nhttp://img534.imageshack.us/img534/3810/themuppetsblurayposter.jpg&quot; rel=&quot;nofollow&quot; target=&quot;_NEW&quot;&gt;\nhttp://img534.imageshack.us/img534/3810/themuppetsblurayposter.jpg&lt;/a&gt;\n\n\nScreen shots :\n\n  &lt;a href=&quot;\nhttp://img252.imageshack.us/img252/5941/themuppets1080pbrripx26.jpg&quot; rel=&quot;nofollow&quot; target=&quot;_NEW&quot;&gt;\nhttp://img252.imageshack.us/img252/5941/themuppets1080pbrripx26.jpg&lt;/a&gt;\n  &lt;a href=&quot;\nhttp://img29.imageshack.us/img29/5941/themuppets1080pbrripx26.jpg&quot; rel=&quot;nofollow&quot; target=&quot;_NEW&quot;&gt;\nhttp://img29.imageshack.us/img29/5941/themuppets1080pbrripx26.jpg&lt;/a&gt;\n  &lt;a href=&quot;\nhttp://img3.imageshack.us/img3/5941/themuppets1080pbrripx26.jpg&quot; rel=&quot;nofollow&quot; target=&quot;_NEW&quot;&gt;\nhttp://img3.imageshack.us/img3/5941/themuppets1080pbrripx26.jpg&lt;/a&gt;\n\n\n\n\n\n\npls seed back after download and provide feedback.\nthank you.\t\t","torrent":{"xt":"urn:btih:b172be20ae4aee636e69dfeec95bc4bb5b72090e","amp;dn":"The+Muppets+2011+1080p+Brrip+x264+Ratzz","amp;tr":["udp%3A%2F%2Ftracker.openbittorrent.com%3A80","udp%3A%2F%2Fopen.demonii.com%3A1337","udp%3A%2F%2Ftracker.coppersurfer.tk%3A6969","udp%3A%2F%2Fexodus.desync.com%3A6969"],"infoHash":"b172be20ae4aee636e69dfeec95bc4bb5b72090e","infoHashBuffer":{"type":"Buffer","data":[177,114,190,32,174,74,238,99,110,105,223,238,201,91,196,187,91,114,9,14]},"announce":[],"urlList":[]}}